<svg width="21" height="24" viewBox="0 0 21 24" fill="none" xmlns="http://www.w3.org/2000/svg">
<path d="M16.9987 23.1109C16.0728 23.1109 15.2857 22.7868 14.6376 22.1387C13.9894 21.4905 13.6654 20.7035 13.6654 19.7776C13.6654 19.6479 13.6746 19.5135 13.6931 19.3742C13.7117 19.2357 13.7394 19.1109 13.7765 18.9998L5.94314 14.4442C5.62833 14.722 5.27648 14.9394 4.88759 15.0964C4.4987 15.2542 4.09129 15.3331 3.66536 15.3331C2.73944 15.3331 1.9524 15.009 1.30425 14.3609C0.656105 13.7127 0.332031 12.9257 0.332031 11.9998C0.332031 11.0739 0.656105 10.2868 1.30425 9.63867C1.9524 8.99052 2.73944 8.66645 3.66536 8.66645C4.09129 8.66645 4.4987 8.74497 4.88759 8.902C5.27648 9.05978 5.62833 9.27756 5.94314 9.55534L13.7765 4.99978C13.7394 4.88867 13.7117 4.76386 13.6931 4.62534C13.6746 4.48608 13.6654 4.35163 13.6654 4.22201C13.6654 3.29608 13.9894 2.50904 14.6376 1.86089C15.2857 1.21275 16.0728 0.888672 16.9987 0.888672C17.9246 0.888672 18.7117 1.21275 19.3598 1.86089C20.008 2.50904 20.332 3.29608 20.332 4.22201C20.332 5.14793 20.008 5.93497 19.3598 6.58312C18.7117 7.23126 17.9246 7.55534 16.9987 7.55534C16.5728 7.55534 16.1654 7.47645 15.7765 7.31867C15.3876 7.16163 15.0357 6.94423 14.7209 6.66645L6.88759 11.222C6.92462 11.3331 6.9524 11.4579 6.97092 11.5964C6.98944 11.7357 6.9987 11.8702 6.9987 11.9998C6.9987 12.1294 6.98944 12.2635 6.97092 12.402C6.9524 12.5413 6.92462 12.6664 6.88759 12.7776L14.7209 17.3331C15.0357 17.0553 15.3876 16.8376 15.7765 16.6798C16.1654 16.5227 16.5728 16.4442 16.9987 16.4442C17.9246 16.4442 18.7117 16.7683 19.3598 17.4164C20.008 18.0646 20.332 18.8516 20.332 19.7776C20.332 20.7035 20.008 21.4905 19.3598 22.1387C18.7117 22.7868 17.9246 23.1109 16.9987 23.1109Z" fill="#F26530"/>
</svg>
